<svg xmlns="http://www.w3.org/2000/svg" viewBox="0 0 260.28 34.85"><defs><style>.\31 92e176a-8d5e-4a12-b92b-c7532c58c8be{fill:#fff;}.\35 c09c5e7-e2ab-4e1c-bc79-853ff4855e8c{fill:#1d33ff;}</style></defs><title>logo_lattemarche</title><g id="8afb82c8-f9bf-43c8-b4f2-8d3e4d551f31" data-name="Layer 2"><g id="aa2a8487-0585-47c1-8286-e3c00f24b891" data-name="Livello 1"><path class="192e176a-8d5e-4a12-b92b-c7532c58c8be" d="M6.65,8.94V34.1h15.4v3.07H3.46V8.94Z" transform="translate(-3.46 -2.67)"/><path class="192e176a-8d5e-4a12-b92b-c7532c58c8be" d="M41.67,33.76A8.63,8.63,0,0,1,34,37.52a9.67,9.67,0,0,1-7.51-3.2,11.3,11.3,0,0,1-2.81-7.81,11.3,11.3,0,0,1,2.81-7.81,9.91,9.91,0,0,1,7.72-3.2,8.46,8.46,0,0,1,7.42,3.8V15.85h3.2V37.18h-3.2Zm-7.21.85a6.75,6.75,0,0,0,5.46-2.39,8.52,8.52,0,0,0,1.92-5.72,8.52,8.52,0,0,0-1.92-5.72,6.75,6.75,0,0,0-5.46-2.39,7.09,7.09,0,0,0-5.54,2.39,8.29,8.29,0,0,0-2,5.72,8.29,8.29,0,0,0,2,5.72A7.08,7.08,0,0,0,34.46,34.62Z" transform="translate(-3.46 -2.67)"/><path class="192e176a-8d5e-4a12-b92b-c7532c58c8be" d="M52.72,37.18V18.66H48.37V15.85h4.35V8.21h3.2v7.63h4.9v2.81h-4.9V37.18Z" transform="translate(-3.46 -2.67)"/><path class="192e176a-8d5e-4a12-b92b-c7532c58c8be" d="M66.62,37.18V18.66H62.27V15.85h4.35V8.21h3.2v7.63h4.9v2.81h-4.9V37.18Z" transform="translate(-3.46 -2.67)"/><path class="192e176a-8d5e-4a12-b92b-c7532c58c8be" d="M87.31,34.62A6.45,6.45,0,0,0,93.49,31H97a10.3,10.3,0,0,1-3.52,4.69,10.13,10.13,0,0,1-6.21,1.79,10.32,10.32,0,0,1-7.85-3.2,10.92,10.92,0,0,1-2.94-7.81,11.11,11.11,0,0,1,2.81-7.81,11,11,0,0,1,15.53,0,11.1,11.1,0,0,1,2.82,7.81v1.28H79.76a7.74,7.74,0,0,0,2.35,4.86A7.21,7.21,0,0,0,87.31,34.62Zm-.26-16.21a7.06,7.06,0,0,0-4.95,1.83,7.57,7.57,0,0,0-2.3,4.56h14.5A7.58,7.58,0,0,0,92,20.24,7.06,7.06,0,0,0,87.05,18.41Z" transform="translate(-3.46 -2.67)"/><path class="5c09c5e7-e2ab-4e1c-bc79-853ff4855e8c" d="M102.22,33.53,105,9.48l-4.06-.62V5.48h15.64L121,22.6l.73,4.35.65-4.35,3.5-17.12h15.91V8.85l-4.56.62,3.65,24,3.35.5v3.17H128.44V34l3.48-.5-1.83-18-.81-7.19-1.19,6.37-4.67,21.37h-7.06l-6-20.62L108.8,8.29l-.42,7.21-1.17,18,4.39.5v3.17H98.72V34Z" transform="translate(-3.46 -2.67)"/><path class="5c09c5e7-e2ab-4e1c-bc79-853ff4855e8c" d="M158.37,21.39a3.64,3.64,0,0,0-.28-1.58,1.82,1.82,0,0,0-1.1-.86,7.93,7.93,0,0,0-2.47-.29,18.81,18.81,0,0,0-3.85.35q-1.67.35-3.37.88h0l-1.65-3.13A14.63,14.63,0,0,1,148,15.39,20.56,20.56,0,0,1,151.85,14a19.19,19.19,0,0,1,4.79-.58,14.77,14.77,0,0,1,5.62.86A5.33,5.33,0,0,1,165.14,17a11.79,11.79,0,0,1,.85,4.93V33.49h2.08v3.09q-1,.18-2.95.4a32.09,32.09,0,0,1-3.36.22,5.8,5.8,0,0,1-1.91-.24,1.42,1.42,0,0,1-.86-.76,3.88,3.88,0,0,1-.23-1.51v-.78a8.29,8.29,0,0,1-6.83,3.28,7.61,7.61,0,0,1-3.66-.89,6.65,6.65,0,0,1-2.63-2.56,7.64,7.64,0,0,1-1-3.93A6.49,6.49,0,0,1,148.1,24q3.44-2.07,10.27-2.07Zm0,3.62a5.67,5.67,0,0,0-3.89,1.1,3.57,3.57,0,0,0-1.21,2.75,4.9,4.9,0,0,0,.72,2.79,2.26,2.26,0,0,0,2,1.06,3,3,0,0,0,1.29-.33,3.49,3.49,0,0,0,1.12-.82Z" transform="translate(-3.46 -2.67)"/><path class="5c09c5e7-e2ab-4e1c-bc79-853ff4855e8c" d="M172.36,33.76V19.14l-2.27-.81V14.5l7.69-1h.1l1.37,1v1.17l-.15,3.64h.17a6.9,6.9,0,0,1,1.3-2.55,9.07,9.07,0,0,1,2.61-2.31,6.53,6.53,0,0,1,3.42-.95,5.39,5.39,0,0,1,1.11.1,2.18,2.18,0,0,1,.74.27v8.78a7.1,7.1,0,0,0-1.7-1,6.12,6.12,0,0,0-2.34-.37,8.54,8.54,0,0,0-2.29.29,4.27,4.27,0,0,0-1.54.7V33.74l4.35.44v3H170.05v-3Z" transform="translate(-3.46 -2.67)"/><path class="5c09c5e7-e2ab-4e1c-bc79-853ff4855e8c" d="M206.08,13.68q1.31.23,2.77.63l1,.25a4.68,4.68,0,0,0,.81.13l-.36,8h-5.06L204,17.81a1,1,0,0,0-.56-.68,2.23,2.23,0,0,0-1-.21,2.37,2.37,0,0,0-1.67.63,4.58,4.58,0,0,0-1.09,2.28,20,20,0,0,0-.41,4.57,12.23,12.23,0,0,0,1.16,5.92,3.58,3.58,0,0,0,3.26,2,11.52,11.52,0,0,0,3.12-.37,13.77,13.77,0,0,0,2.55-1l1.31,2.78a8.15,8.15,0,0,1-1.78,1.45,13.07,13.07,0,0,1-3.07,1.4,12.92,12.92,0,0,1-4,.59q-5.81,0-8.57-3.15t-2.78-8.53a12.51,12.51,0,0,1,1.6-6.47,10.66,10.66,0,0,1,4.4-4.16,13.8,13.8,0,0,1,6.38-1.44A19,19,0,0,1,206.08,13.68Z" transform="translate(-3.46 -2.67)"/><path class="5c09c5e7-e2ab-4e1c-bc79-853ff4855e8c" d="M215.23,33.71V7.35l-2.77-.62v-3l9.41-1.1H222l1.42,1,0,8.89L223,16.45a13.44,13.44,0,0,1,3.43-2.1,11.52,11.52,0,0,1,4.67-.89,7.73,7.73,0,0,1,4.19,1,5.09,5.09,0,0,1,2.1,2.89,17.51,17.51,0,0,1,.6,5.08V33.69l2.42.42v3.07H227.76v-3l2-.42V22.43a12.66,12.66,0,0,0-.22-2.69,2.37,2.37,0,0,0-.78-1.39,2.59,2.59,0,0,0-1.62-.44,4.19,4.19,0,0,0-1.95.47,5.25,5.25,0,0,0-1.53,1.17V33.69l2.1.42v3.07H213.16V34.11Z" transform="translate(-3.46 -2.67)"/><path class="5c09c5e7-e2ab-4e1c-bc79-853ff4855e8c" d="M243.56,18.91a9.61,9.61,0,0,1,4.13-4.07A13.68,13.68,0,0,1,254,13.45q4.71,0,7.17,2.11a7.6,7.6,0,0,1,2.52,6,20.08,20.08,0,0,1-.4,4.22H250.59a8.63,8.63,0,0,0,1.69,4.93,4.92,4.92,0,0,0,3.92,1.57,10.58,10.58,0,0,0,3.09-.5,16.36,16.36,0,0,0,2.82-1.12l1.37,2.94a8.69,8.69,0,0,1-2.12,1.58,16.78,16.78,0,0,1-3.44,1.46,13.34,13.34,0,0,1-4,.6q-6.18,0-9-3.13t-2.83-8.64A13.55,13.55,0,0,1,243.56,18.91Zm12.34,3.73,0-1.49a8.21,8.21,0,0,0-.52-3.34,1.89,1.89,0,0,0-1.87-1.11,2.71,2.71,0,0,0-1.61.45,3.16,3.16,0,0,0-1,1.75,14.65,14.65,0,0,0-.4,3.74Z" transform="translate(-3.46 -2.67)"/></g></g></svg>