<svg xmlns="http://www.w3.org/2000/svg" viewBox="0 0 960 386.9"><defs><style>.\36 3865f49-18fb-4d93-be95-fac37129c7ae{fill:#36a3f7;}</style></defs><title>Asset 3</title><g id="5b637f0e-227a-4008-a234-5a3e3b95f336" data-name="Layer 2"><g id="ecb5b930-aab4-495e-8197-d800e838ed6e" data-name="Layer 1"><path id="4ec6f62b-a35b-4ecb-8c62-f50632672ea0" data-name="&lt;Clipping Path&gt;" class="63865f49-18fb-4d93-be95-fac37129c7ae" d="M28.18,323.21C14,324.75,6.7,304.56,5.17,290.39a25.81,25.81,0,0,1,51.32-5.56C58,299,42.36,321.67,28.18,323.21Z"/><path id="e4e9b671-4964-4f51-8f18-5892409ad0e1" data-name="&lt;Clipping Path&gt;" class="63865f49-18fb-4d93-be95-fac37129c7ae" d="M256.83,327.21a2.79,2.79,0,0,1,4-3.5c10.14,6.08,29.77,15,50.38,8.79,24.58-7.4,34.33,19.35,12.05,30.6-9.79,4.94-23.36,5.79-39.88-3C269.67,352.87,261.06,337,256.83,327.21Z"/><path class="63865f49-18fb-4d93-be95-fac37129c7ae" d="M0,249.92c43.13-42.8,87.09,31.54,105.42,91.37,30.35,99,129.32,12.25,42-30.58-71.61-35.14-2.09-103.59,59.41-43.69,49.83,48.54,95.22,67.41,115,40.73,20.77-28-7.33-59.77-62.32-76.67C95.84,180.76,147.37-101.81,466.38,69.16,762.79,228,960,67.48,960,67.48V0H0Z"/></g></g></svg>