<svg xmlns="http://www.w3.org/2000/svg" viewBox="0 0 960 386.9"><defs><style>.\32 3a52e02-ee1c-47ab-804b-29b5ad2b69be{fill:#36a3f7;}</style></defs><title>gocce_2</title><g id="f4ff52db-ae7a-43ae-8d88-bfb50e20bc1c" data-name="Layer 2"><g id="4d689200-aba2-42aa-9188-1c1c29a9a8ca" data-name="Layer 1"><path id="591ae371-8fbe-4e67-9d74-4515ab71d415" data-name="&lt;Clipping Path&gt;" class="23a52e02-ee1c-47ab-804b-29b5ad2b69be" d="M931.82,323.21c14.17,1.54,21.48-18.65,23-32.82a25.81,25.81,0,0,0-51.32-5.56C902,299,917.64,321.67,931.82,323.21Z"/><path id="6f28068b-6ade-4d67-9eb1-9e56c6fe72e2" data-name="&lt;Clipping Path&gt;" class="23a52e02-ee1c-47ab-804b-29b5ad2b69be" d="M703.17,327.21a2.79,2.79,0,0,0-4-3.5c-10.14,6.08-29.77,15-50.38,8.79-24.58-7.4-34.33,19.35-12.05,30.6,9.79,4.94,23.36,5.79,39.88-3C690.33,352.87,698.94,337,703.17,327.21Z"/><path class="23a52e02-ee1c-47ab-804b-29b5ad2b69be" d="M960,249.92c-43.13-42.8-87.09,31.54-105.42,91.37-30.35,99-129.32,12.25-42-30.58,71.61-35.14,2.09-103.59-59.41-43.69-49.83,48.54-95.22,67.41-115,40.73-20.77-28,7.33-59.77,62.32-76.67C864.16,180.76,812.63-101.81,493.62,69.16,197.21,228,0,67.48,0,67.48V0H960Z"/></g></g></svg>