<?xml version="1.0" encoding="UTF-8" standalone="no"?>
<!DOCTYPE svg PUBLIC "-//W3C//DTD SVG 1.1//EN" "http://www.w3.org/Graphics/SVG/1.1/DTD/svg11.dtd">
<svg width="100%" height="100%" viewBox="0 0 3840 2160" version="1.1" xmlns="http://www.w3.org/2000/svg" xmlns:xlink="http://www.w3.org/1999/xlink" xml:space="preserve" xmlns:serif="http://www.serif.com/" style="fill-rule:evenodd;clip-rule:evenodd;stroke-linejoin:round;stroke-miterlimit:1.41421;">
    <g>
        <g transform="matrix(1.01779,0,0,1.12762,16.2291,-267.505)">
            <ellipse cx="1870.5" cy="1195" rx="1658.5" ry="525" style="fill:rgb(113,88,190);"/>
        </g>
        <g transform="matrix(0.853756,0,0,1.06175,90.284,-46.386)">
            <text x="588px" y="1192px" style="font-family:'Arial-BoldItalicMT', 'Arial', sans-serif;font-weight:700;font-style:italic;font-size:600.3px;fill:white;">l<tspan x="713.962px 1007px 1166.08px 1325.17px 1618.21px 1744.17px 2237.11px 2530.15px 2722.94px 3015.98px 3341.85px " y="1192px 1192px 1192px 1192px 1192px 1192px 1192px 1192px 1192px 1192px 1192px ">atte marche</tspan></text>
        </g>
        <g transform="matrix(0.769258,0,0,1.06659,342.048,142.838)">
            <text x="588px" y="1192px" style="font-family:'Arial-BoldMT', 'Arial', sans-serif;font-weight:700;font-size:141.73px;fill:white;">O<tspan x="726.588px 857.287px 995.875px 1126.57px 1257.27px 1325px 1439.92px 1554.84px 1685.54px 1800.45px 1868.18px 2006.77px 2137.47px 2260.34px 2328.07px 2450.95px 2581.64px 2720.23px 2850.93px 2981.63px 3096.55px 3208.91px 3347.5px 3478.2px " y="1192px 1192px 1192px 1192px 1192px 1192px 1192px 1192px 1192px 1192px 1192px 1192px 1192px 1192px 1192px 1192px 1192px 1192px 1192px 1192px 1192px 1192px 1192px 1192px ">RGANIZZAZIONE PRODUTTORI</tspan></text>
        </g>
    </g>
</svg>
