<svg xmlns="http://www.w3.org/2000/svg" viewBox="0 0 420.14 127.27"><defs><style>.cls-1,.cls-2,.cls-3,.cls-4,.cls-5{isolation:isolate;}.cls-2,.cls-3,.cls-4{font-size:24.09px;font-family:Arial-BoldMT, Arial;}.cls-2,.cls-3,.cls-4,.cls-5{fill:#fff;font-weight:700;}.cls-3{letter-spacing:-0.04em;}.cls-4{letter-spacing:-0.02em;}.cls-5{font-size:101.58px;font-family:Arial-BoldItalicMT, Arial;font-style:italic;}</style></defs><title>main-logo</title><g id="Layer_2" data-name="Layer 2"><g id="Layer_1-2" data-name="Layer 1"><g class="cls-1"><text class="cls-2" transform="translate(32.21 118.2) scale(0.72 1)">O</text><text class="cls-2" transform="translate(49.2 118.2) scale(0.72 1)">R</text><text class="cls-2" transform="translate(65.22 118.2) scale(0.72 1)">G</text><text class="cls-3" transform="translate(82.21 118.2) scale(0.72 1)">A</text><text class="cls-2" transform="translate(98.23 118.2) scale(0.72 1)">N</text><text class="cls-2" transform="translate(114.26 118.2) scale(0.72 1)">I</text><text class="cls-2" transform="translate(122.56 118.2) scale(0.72 1)">Z</text><text class="cls-2" transform="translate(136.65 118.2) scale(0.72 1)">Z</text><text class="cls-3" transform="translate(150.74 118.2) scale(0.72 1)">A</text><text class="cls-2" transform="translate(166.77 118.2) scale(0.72 1)">Z</text><text class="cls-2" transform="translate(180.85 118.2) scale(0.72 1)">I</text><text class="cls-2" transform="translate(189.16 118.2) scale(0.72 1)">O</text><text class="cls-2" transform="translate(206.15 118.2) scale(0.72 1)">N</text><text class="cls-2" transform="translate(222.17 118.2) scale(0.72 1)">E</text><text class="cls-2" transform="translate(237.24 118.2) scale(0.72 1)"> </text><text class="cls-4" transform="translate(245.54 118.2) scale(0.72 1)">P</text><text class="cls-2" transform="translate(260.6 118.2) scale(0.72 1)">R</text><text class="cls-2" transform="translate(276.63 118.2) scale(0.72 1)">O</text><text class="cls-2" transform="translate(293.62 118.2) scale(0.72 1)">D</text><text class="cls-2" transform="translate(309.64 118.2) scale(0.72 1)">U</text><text class="cls-2" transform="translate(325.67 118.2) scale(0.72 1)">T</text><text class="cls-2" transform="translate(339.76 118.2) scale(0.72 1)">T</text><text class="cls-2" transform="translate(353.53 118.2) scale(0.72 1)">O</text><text class="cls-2" transform="translate(370.52 118.2) scale(0.72 1)">R</text><text class="cls-2" transform="translate(386.55 118.2) scale(0.72 1)">I</text></g></g><g id="Layer_3" data-name="Layer 3"><g class="cls-1"><text class="cls-5" transform="translate(0 87.12) scale(0.8 1)">l</text><text class="cls-5" transform="translate(17.14 87.12) scale(0.8 1)">a</text><text class="cls-5" transform="translate(57.01 87.12) scale(0.8 1)">t</text><text class="cls-5" transform="translate(78.66 87.12) scale(0.8 1)">t</text><text class="cls-5" transform="translate(100.3 87.12) scale(0.8 1)">e</text><text class="cls-5" transform="translate(140.18 87.12) scale(0.8 1)"> </text><text class="cls-5" transform="translate(157.32 87.12) scale(0.8 1)">m</text><text class="cls-5" transform="translate(224.39 87.12) scale(0.8 1)">a</text><text class="cls-5" transform="translate(264.26 87.12) scale(0.8 1)">r</text><text class="cls-5" transform="translate(290.5 87.12) scale(0.8 1)">c</text><text class="cls-5" transform="translate(330.37 87.12) scale(0.8 1)">h</text><text class="cls-5" transform="translate(374.71 87.12) scale(0.8 1)">e</text></g></g></g></svg>